<svg aria-hidden="true"
     style="position: absolute; width: 0; height: 0; overflow: hidden;"
     xmlns="http://www.w3.org/2000/svg">
  <defs>
    <symbol id="icon-heart-outlined"
            viewBox="0 0 20 20">
      <path
        d="M17.19 4.156c-1.672-1.535-4.383-1.535-6.055 0l-1.135 1.041-1.136-1.041c-1.672-1.535-4.382-1.535-6.054 0-1.881 1.726-1.881 4.519 0 6.245l7.19 6.599 7.19-6.599c1.88-1.726 1.88-4.52 0-6.245zM16.124 9.375l-6.124 5.715-6.125-5.715c-0.617-0.567-0.856-1.307-0.856-2.094s0.138-1.433 0.756-1.999c0.545-0.501 1.278-0.777 2.063-0.777s1.517 0.476 2.062 0.978l2.1 1.825 2.099-1.826c0.546-0.502 1.278-0.978 2.063-0.978s1.518 0.276 2.063 0.777c0.618 0.566 0.755 1.212 0.755 1.999s-0.238 1.528-0.856 2.095z"/>
    </symbol>
    <symbol id="icon-home"
            viewBox="0 0 20 20">
      <path
        d="M18.672 11h-1.672v6c0 0.445-0.194 1-1 1h-4v-6h-4v6h-4c-0.806 0-1-0.555-1-1v-6h-1.672c-0.598 0-0.47-0.324-0.060-0.748l8.024-8.032c0.195-0.202 0.451-0.302 0.708-0.312 0.257 0.010 0.513 0.109 0.708 0.312l8.023 8.031c0.411 0.425 0.539 0.749-0.059 0.749z"/>
    </symbol>
    <symbol id="icon-magnifying-glass"
            viewBox="0 0 20 20">
      <path
        d="M17.545 15.467l-3.779-3.779c0.57-0.935 0.898-2.035 0.898-3.21 0-3.417-2.961-6.377-6.378-6.377s-6.186 2.769-6.186 6.186c0 3.416 2.961 6.377 6.377 6.377 1.137 0 2.2-0.309 3.115-0.844l3.799 3.801c0.372 0.371 0.975 0.371 1.346 0l0.943-0.943c0.371-0.371 0.236-0.84-0.135-1.211zM4.004 8.287c0-2.366 1.917-4.283 4.282-4.283s4.474 2.107 4.474 4.474c0 2.365-1.918 4.283-4.283 4.283s-4.473-2.109-4.473-4.474z"/>
    </symbol>
    <symbol id="icon-user"
            viewBox="0 0 20 20">
      <path
        d="M7.725 2.146c-1.016 0.756-1.289 1.953-1.239 2.59 0.064 0.779 0.222 1.793 0.222 1.793s-0.313 0.17-0.313 0.854c0.109 1.717 0.683 0.976 0.801 1.729 0.284 1.814 0.933 1.491 0.933 2.481 0 1.649-0.68 2.42-2.803 3.334-2.13 0.918-4.326 2.073-4.326 4.073v1h18v-1c0-2-2.197-3.155-4.328-4.072-2.123-0.914-2.801-1.684-2.801-3.334 0-0.99 0.647-0.667 0.932-2.481 0.119-0.753 0.692-0.012 0.803-1.729 0-0.684-0.314-0.854-0.314-0.854s0.158-1.014 0.221-1.793c0.065-0.817-0.398-2.561-2.3-3.096-0.333-0.34-0.558-0.881 0.466-1.424-2.24-0.105-2.761 1.067-3.954 1.929z"/>
    </symbol>
    <symbol id="icon-bar-graph"
            viewBox="0 0 20 20">
      <path
        d="M17 1h-2c-0.552 0-1 0.447-1 1v16.992h4v-16.992c0-0.553-0.447-1-1-1zM11 7h-2c-0.552 0-1 0.447-1 1v10.992h4v-10.992c0-0.553-0.447-1-1-1zM5 13h-2c-0.552 0-1 0.447-1 1v4.992h4v-4.992c0-0.553-0.447-1-1-1z"/>
    </symbol>
    <symbol id="icon-calendar"
            viewBox="0 0 20 20">
      <path
        d="M17 3h-1v2h-3v-2h-6v2h-3v-2h-1c-1.101 0-2 0.9-2 2v12c0 1.1 0.899 2 2 2h14c1.1 0 2-0.9 2-2v-12c0-1.1-0.9-2-2-2zM17 17h-14v-8h14v8zM6.5 1h-2v3.5h2v-3.5zM15.5 1h-2v3.5h2v-3.5z"/>
    </symbol>
    <symbol id="icon-shop"
            viewBox="0 0 20 20">
      <path
        d="M6.123 7.25l0.791-5.25h-4.114l-1.719 4.5c-0.053 0.16-0.081 0.326-0.081 0.5 0 1.104 1.15 2 2.571 2 1.31 0 2.393-0.764 2.552-1.75zM10 9c1.42 0 2.571-0.896 2.571-2 0-0.041-0.003-0.082-0.005-0.121l-0.509-4.879h-4.114l-0.51 4.875c-0.002 0.041-0.004 0.082-0.004 0.125 0 1.104 1.151 2 2.571 2zM15 10.046v3.954h-10v-3.948c-0.438 0.158-0.92 0.248-1.429 0.248-0.195 0-0.384-0.023-0.571-0.049v6.349c0 0.77 0.629 1.4 1.398 1.4h11.202c0.77 0 1.4-0.631 1.4-1.4v-6.348c-0.188 0.025-0.376 0.049-0.571 0.049-0.506-0.001-0.99-0.093-1.429-0.255zM18.92 6.5l-1.721-4.5h-4.113l0.79 5.242c0.154 0.99 1.237 1.758 2.553 1.758 1.42 0 2.571-0.896 2.571-2 0-0.174-0.028-0.34-0.080-0.5z"/>
    </symbol>
    <symbol id="icon-shopping-cart"
            viewBox="0 0 20 20">
      <path
        d="M13 17c0 1.104 0.894 2 2 2 1.104 0 2-0.896 2-2 0-1.106-0.896-2-2-2-1.106 0-2 0.894-2 2zM3 17c0 1.104 0.895 2 2 2 1.103 0 2-0.896 2-2 0-1.106-0.897-2-2-2-1.105 0-2 0.894-2 2zM6.547 12.172l11.068-3.162c0.211-0.061 0.385-0.289 0.385-0.51v-5.5h-14v-1.6c0-0.22-0.181-0.4-0.399-0.4h-3.202c-0.219 0-0.399 0.18-0.399 0.4v1.6h2l1.91 8.957 0.090 0.943v1.649c0 0.219 0.18 0.4 0.4 0.4h13.2c0.22 0 0.4-0.182 0.4-0.4v-1.549h-11.248c-1.15 0-1.174-0.551-0.205-0.828z"/>
    </symbol>
    <symbol id="icon-user"
            viewBox="0 0 20 20">
      <path
        d="M7.725 2.146c-1.016 0.756-1.289 1.953-1.239 2.59 0.064 0.779 0.222 1.793 0.222 1.793s-0.313 0.17-0.313 0.854c0.109 1.717 0.683 0.976 0.801 1.729 0.284 1.814 0.933 1.491 0.933 2.481 0 1.649-0.68 2.42-2.803 3.334-2.13 0.918-4.326 2.073-4.326 4.073v1h18v-1c0-2-2.197-3.155-4.328-4.072-2.123-0.914-2.801-1.684-2.801-3.334 0-0.99 0.647-0.667 0.932-2.481 0.119-0.753 0.692-0.012 0.803-1.729 0-0.684-0.314-0.854-0.314-0.854s0.158-1.014 0.221-1.793c0.065-0.817-0.398-2.561-2.3-3.096-0.333-0.34-0.558-0.881 0.466-1.424-2.24-0.105-2.761 1.067-3.954 1.929z"/>
    </symbol>
  </defs>
</svg>
